<svg xmlns="http://www.w3.org/2000/svg" viewBox="0 0 20 20" style="fill:#0000007F"><defs><style>.cls-1{fill:none;}</style></defs><g id="Layer_2" data-name="Layer 2"><g id="Layer_1-2" data-name="Layer 1"><path id="Path_646" data-name="Path 646" class="cls-1" d="M0,0H20V20H0Z"/><path id="Path_647" data-name="Path 647" d="M3.25,10A2.58,2.58,0,0,1,5.83,7.42H9.17V5.83H5.83a4.17,4.17,0,0,0,0,8.34H9.17V12.58H5.83A2.58,2.58,0,0,1,3.25,10Zm3.42.83h6.66V9.17H6.67Zm7.5-5H10.83V7.42h3.34a2.58,2.58,0,1,1,0,5.16H10.83v1.59h3.34a4.17,4.17,0,0,0,.13-8.34Z"/></g></g></svg>