<svg xmlns="http://www.w3.org/2000/svg" viewBox="0 0 24 24" style="fill:#0000007F"><defs><style>.cls-1{fill:none;}</style></defs><g id="Layer_2" data-name="Layer 2"><g id="Layer_1-2" data-name="Layer 1"><path id="Path_342" data-name="Path 342" class="cls-1" d="M0,0H24V24H0Z"/><path id="Path_343" data-name="Path 343" class="cls-1" d="M0,0H24V24H0Z"/><circle id="Ellipse_102" data-name="Ellipse 102" cx="15.4" cy="9.57" r="1.8"/><circle id="Ellipse_103" data-name="Ellipse 103" cx="8.6" cy="9.57" r="1.8"/><path id="Path_344" data-name="Path 344" d="M12,2.4A9.6,9.6,0,1,0,21.6,12,9.6,9.6,0,0,0,12,2.4Zm0,17.28A7.68,7.68,0,1,1,19.68,12h0A7.68,7.68,0,0,1,12,19.68Zm0-2.4a5.27,5.27,0,0,0,4.92-3.36H15.31a3.8,3.8,0,0,1-6.62,0H7.08A5.27,5.27,0,0,0,12,17.28Z"/></g></g></svg>